<?xml version="1.0" encoding="UTF-8" standalone="no"?>
<svg
   xmlns:dc="http://purl.org/dc/elements/1.1/"
   xmlns:cc="http://creativecommons.org/ns#"
   xmlns:rdf="http://www.w3.org/1999/02/22-rdf-syntax-ns#"
   xmlns:svg="http://www.w3.org/2000/svg"
   xmlns="http://www.w3.org/2000/svg"
   xmlns:sodipodi="http://sodipodi.sourceforge.net/DTD/sodipodi-0.dtd"
   xmlns:inkscape="http://www.inkscape.org/namespaces/inkscape"
   version="1.1"
   id="svg2"
   xml:space="preserve"
   width="465.16"
   height="50.013332"
   viewBox="0 0 465.16 50.013332"
   sodipodi:docname="uva_horiz_rgb_ko.eps"><metadata
     id="metadata8"><rdf:RDF><cc:Work
         rdf:about=""><dc:format>image/svg+xml</dc:format><dc:type
           rdf:resource="http://purl.org/dc/dcmitype/StillImage" /></cc:Work></rdf:RDF></metadata><defs
     id="defs6" /><sodipodi:namedview
     pagecolor="#ffffff"
     bordercolor="#666666"
     borderopacity="1"
     objecttolerance="10"
     gridtolerance="10"
     guidetolerance="10"
     inkscape:pageopacity="0"
     inkscape:pageshadow="2"
     inkscape:window-width="640"
     inkscape:window-height="480"
     id="namedview4" /><g
     id="g10"
     inkscape:groupmode="layer"
     inkscape:label="ink_ext_XXXXXX"
     transform="matrix(1.3333333,0,0,-1.3333333,0,50.013333)"><g
       id="g12"
       transform="scale(0.1)"><path
         d="m 2070.64,81.8867 c 26.36,0 52.46,53.2263 52.46,69.9533 0.25,7.859 -4.31,14.195 -12.67,14.195 -10.65,0 -24.08,-9.633 -36.75,-30.16 -8.62,-13.687 -14.7,-29.148 -14.7,-41.0625 0,-8.1094 5.57,-12.9258 11.66,-12.9258 z m 3.8,-12.164 c -13.94,0 -26.11,13.4336 -26.11,32.6953 0,31.934 24.08,75.273 57.79,75.273 16.98,0 27.12,-12.418 27.12,-29.652 0,-27.879 -22.05,-78.3163 -58.8,-78.3163"
         style="fill:#ffffff;fill-opacity:1;fill-rule:evenodd;stroke:none"
         id="path14" /><path
         d="m 2161.52,164.012 h -22.55 c -1.27,0 -1.89,1.242 -1.38,3.015 l 1.01,4.309 c 0.51,1.773 2.26,5.832 4.28,5.832 h 22.06 c 7.6,21.801 14.97,39.535 28.41,54.488 7.09,8.11 21.03,17.235 37.51,17.235 14.7,0 22.81,-8.871 22.81,-14.953 0,-7.86 -5.07,-11.661 -10.14,-11.661 -8.11,0 -10.39,4.563 -11.15,10.141 -0.26,2.535 -2.79,7.348 -10.39,7.348 -23.58,0 -28.67,-33.481 -37.03,-61.868 l 14.56,-0.335 v -13.747 l -20.62,0.196 C 2172.31,143.48 2160.65,100.113 2147.98,67.6719 2132.52,28.1328 2114.52,0 2087.4,0 c -10.14,0 -18.25,6.84375 -18.25,14.9531 0,5.8282 4.31,10.8985 10.9,10.8985 7.35,0 11.15,-7.0938 11.91,-11.4063 0.51,-2.5351 2.29,-4.3086 4.31,-4.3086 12.17,0 25.86,21.293 39.54,68.1797 l 25.71,85.6956"
         style="fill:#ffffff;fill-opacity:1;fill-rule:nonzero;stroke:none"
         id="path16" /><path
         d="m 2234.89,286.711 c 12.59,-0.246 29.29,-0.5 44.24,-0.5 30.96,0 47.55,1.105 50.87,1.105 3.32,0 3.69,-1.105 3.69,-2.582 v -8.476 c 0,-1.84 -0.37,-3.317 -2.95,-3.317 h -17.7 c -10.32,0 -15.48,-3.32 -15.48,-9.586 0,-2.949 0.37,-7.371 1.48,-12.531 2.21,-13.269 15.85,-57.136 22.48,-77.777 4.42,-14.008 25.8,-77.4103 34.28,-99.8986 8.48,17.3282 37.23,93.2616 40.18,101.7386 3.69,9.953 17.7,52.343 23.23,68.562 2.94,9.219 5.16,15.852 5.16,21.016 0,4.422 -2.58,8.476 -11.8,8.476 h -9.58 c -1.48,0 -1.85,1.106 -1.85,3.317 v 8.476 c 0,1.844 0.37,2.582 2.21,2.582 3.32,0 20.28,-1.105 43.5,-1.105 26.91,0 36.13,1.105 39.44,1.105 2.22,0 2.58,-0.738 2.58,-2.582 v -9.214 c 0,-1.473 -0.36,-2.579 -2.58,-2.579 h -9.95 c -12.16,0 -19.17,-5.898 -26.17,-14.375 -9.59,-11.796 -39.07,-87.363 -45.34,-102.847 -4.42,-12.164 -51.98,-129.3831 -53.82,-133.0706 -1.47,-2.9492 -3.32,-4.7929 -5.16,-4.7929 -2.95,0 -4.42,3.6875 -6.27,8.4804 -11.79,33.9102 -41.65,117.9571 -46.44,131.2271 l -3.69,12.535 c -8.85,26.172 -26.17,79.621 -30.96,90.679 -3.69,8.477 -7.38,12.164 -15.12,12.164 l -8.48,0.082 v 13.688"
         style="fill:#ffffff;fill-opacity:1;fill-rule:nonzero;stroke:none"
         id="path18" /><path
         d="m 2522.07,168.859 c 0,2.797 0.4,50.352 0.4,54.348 0.4,8.395 4,9.992 14.79,9.992 h 6.79 c 2,0 2.4,1.199 2.4,2.797 v 9.59 c 0,1.199 -0.8,2 -2.4,2 -3.19,0 -23.58,-1.199 -35.16,-1.199 -18.79,-0.399 -43.56,1.199 -45.96,1.199 -1.6,0 -2.4,-0.801 -2.4,-2.398 v -9.192 c 0,-1.598 0.4,-2.797 2.4,-2.797 h 7.19 c 16.79,0 20.38,-3.996 20.38,-8.394 0,-5.594 0.8,-45.559 0.8,-51.95 V 155.27 c 0,-13.586 -0.4,-64.3403 -0.8,-67.938 -0.8,-7.1914 -7.19,-7.5937 -17.18,-7.5937 h -8.79 c -1.6,0 -2.4,-1.1992 -2.4,-2.3985 v -8.789 c 0,-2 0.8,-3.1992 2.4,-3.1992 2.39,0 25.57,1.1992 39.16,1.1992 17.98,0 38.76,-1.1992 41.96,-1.1992 2,0 2.4,1.1992 2.4,2.7968 v 9.5938 c 0,1.1992 -0.4,1.9961 -2.4,1.9961 h -5.99 c -11.59,0 -16.39,5.5976 -17.19,14.789 -0.4,5.9927 -0.4,51.9527 -0.4,54.3477 v 19.984"
         style="fill:#ffffff;fill-opacity:1;fill-rule:evenodd;stroke:none"
         id="path20" /><path
         d="m 2612.86,226.004 c 0,7.195 5.99,8.793 11.99,8.793 15.98,0 27.17,-3.598 37.96,-10.391 7.2,-4.797 13.19,-15.586 13.19,-27.574 0,-10.391 -6.79,-41.562 -51.15,-41.562 -5.2,0 -9.19,0.402 -11.99,0.8 z m -32.67,-68.336 c -0.4,-24.379 0,-47.957 -0.4,-67.5391 0,-8.7891 -4.8,-10.3906 -14.39,-10.3906 h -4.79 c -1.6,0 -2.4,-0.7969 -2.4,-1.9961 v -9.1914 c 0,-2 0.8,-3.1992 2.4,-3.1992 2.79,0 23.17,1.1992 33.17,1.1992 13.18,0 34.76,-1.1992 37.56,-1.1992 2.4,0 3.2,0.8007 3.2,2.7968 v 9.5938 c 0,1.1992 -0.8,1.9961 -2.4,1.9961 h -10.39 c -7.99,0 -10.39,4.3984 -11.19,9.9922 v 43.1605 9.589 c 2.8,0.801 6.39,0.801 10.39,0.801 16.79,0 22.78,-8.793 37.17,-33.57 3.59,-5.992 21.18,-38.3633 28.77,-43.9571 6.79,0.3984 16.39,0.7969 25.58,0.7969 3.99,0 8.79,-0.3985 12.39,-0.3985 3.99,-0.3984 7.19,-0.8007 7.99,-0.8007 1.6,0 2.4,1.1992 2.4,2.7968 v 7.9961 c 0,2.3946 -0.4,3.5938 -2,3.5938 -7.2,0 -12.39,0.4023 -17.99,4.3984 -7.59,5.5938 -16.78,17.5823 -22.38,25.5743 -16.38,23.18 -24.37,35.566 -33.57,37.566 v 0.801 c 31.58,11.188 47.16,27.172 47.16,54.746 0,9.196 -5.19,20.781 -13.99,29.176 -9.99,8.793 -27.97,15.586 -51.95,15.586 -5.19,0 -39.96,-1.199 -44.76,-1.199 -7.19,0 -31.97,1.199 -33.97,1.199 -1.59,0 -2.39,-0.801 -2.39,-2 v -9.59 c 0,-1.598 0.4,-2.797 1.59,-2.797 h 4 c 11.19,0 14.79,-4.394 15.19,-12.39 v -38.364 -24.777"
         style="fill:#ffffff;fill-opacity:1;fill-rule:evenodd;stroke:none"
         id="path22" /><path
         d="m 2884.9,120.902 c 0,6.793 7.59,8.391 11.59,8.391 h 6.79 c 1.2,0 2,1.199 2,2.398 v 9.59 c 0,1.199 -0.8,2 -2.4,2 -1.6,0 -19.58,-0.801 -34.37,-0.801 -21.58,0 -41.16,0.801 -43.56,0.801 -1.6,0 -2,-0.801 -2,-2 v -9.59 c 0,-1.199 0.4,-2 2,-2 h 9.59 c 10.39,0 19.59,-2.796 19.59,-11.988 v -14.785 c 0,-7.9922 -0.8,-13.1875 -6,-17.1836 -6.39,-5.1953 -19.18,-8.793 -33.17,-8.793 -11.19,0 -27.17,5.9961 -38.36,17.9844 -15.59,16.3872 -24.38,39.1642 -24.38,69.9332 0,17.985 8.79,39.164 20.78,52.356 14.79,15.984 30.37,20.379 42.76,20.379 18.38,0 29.57,-7.992 40.36,-19.18 9.6,-9.594 16.39,-21.98 19.19,-28.375 1.2,-3.199 1.99,-3.598 3.19,-3.199 l 7.6,2.398 c 1.2,0.399 1.6,1.2 1.6,3.2 -0.8,7.191 -6,44.359 -6,46.355 0,2.797 -0.8,4.398 -4.4,4.398 -3.19,0 -4.39,-1.199 -5.19,-2.8 l -2,-3.594 c -0.8,-1.199 -2.4,-1.199 -5.59,1.598 -7.6,5.593 -26.38,12.789 -45.56,12.789 -28.38,0 -52.75,-8.395 -71.54,-24.379 -19.18,-16.785 -29.57,-41.164 -29.57,-65.539 0,-31.172 7.99,-52.754 23.98,-70.3363 18.78,-20.7813 50.75,-29.1719 71.53,-29.1719 25.58,0 47.16,5.5938 68.34,15.9844 2.8,1.1992 4.4,2.3984 4.4,4.3945 0,2 -1.2,4.3946 -1.2,7.9922 v 30.7731"
         style="fill:#ffffff;fill-opacity:1;fill-rule:evenodd;stroke:none"
         id="path24" /><path
         d="m 2958.17,168.859 c 0,2.797 0.4,50.352 0.4,54.348 0.4,8.395 4,9.992 14.79,9.992 h 6.79 c 2,0 2.4,1.199 2.4,2.797 v 9.59 c 0,1.199 -0.8,2 -2.4,2 -3.2,0 -23.58,-1.199 -35.17,-1.199 -18.78,-0.399 -43.56,1.199 -45.96,1.199 -1.59,0 -2.39,-0.801 -2.39,-2.398 v -9.192 c 0,-1.598 0.4,-2.797 2.39,-2.797 h 7.2 c 16.78,0 20.38,-3.996 20.38,-8.394 0,-5.594 0.8,-45.559 0.8,-51.95 V 155.27 c 0,-13.586 -0.4,-64.3403 -0.8,-67.938 -0.8,-7.1914 -7.19,-7.5937 -17.18,-7.5937 h -8.8 c -1.6,0 -2.39,-1.1992 -2.39,-2.3985 v -8.789 c 0,-2 0.79,-3.1992 2.39,-3.1992 2.4,0 25.58,1.1992 39.17,1.1992 17.98,0 38.76,-1.1992 41.96,-1.1992 2,0 2.4,1.1992 2.4,2.7968 v 9.5938 c 0,1.1992 -0.4,1.9961 -2.4,1.9961 h -6 c -11.59,0 -16.38,5.5976 -17.18,14.789 -0.4,5.9927 -0.4,51.9527 -0.4,54.3477 v 19.984"
         style="fill:#ffffff;fill-opacity:1;fill-rule:evenodd;stroke:none"
         id="path26" /><path
         d="m 3174.15,164.859 c 0,16.387 -0.79,41.567 1.2,59.946 0.8,5.597 2.8,8.394 12.79,8.394 h 4 c 1.6,0 2.4,1.199 2.4,2.797 v 8.395 c 0,2.394 -0.8,3.195 -2.8,3.195 -2.8,0 -16.79,-1.199 -25.18,-1.199 -12.79,0 -29.97,1.199 -32.77,1.199 -2,0 -2.8,-0.801 -2.8,-2 v -9.59 c 0,-2 0.8,-2.797 2.8,-2.797 h 6.79 c 6.8,0 12.79,-2.398 14.79,-7.195 2,-4.793 3.2,-27.973 3.2,-37.566 0.8,-12.786 1.2,-25.176 1.2,-47.954 v -26.375 h -1.6 c -4.8,5.196 -41.96,51.95 -49.16,60.344 -8.39,9.992 -54.35,67.938 -55.54,69.535 -1.6,2.399 -4,3.2 -9.6,3.2 -4.79,0 -13.18,-0.801 -19.58,-0.801 -4.39,0 -10.79,0.398 -15.98,0.801 -5.2,0 -9.6,0.398 -10.39,0.398 -1.6,0 -2.4,-1.199 -2.4,-2.398 v -9.59 c 0,-1.602 0.8,-2.399 2.4,-2.399 h 3.59 c 11.19,0 21.18,-6.793 21.18,-21.179 v -41.961 c 0,-45.161 -0.8,-73.5356 -1.2,-78.3324 -1.19,-9.1914 -7.59,-11.9883 -11.59,-11.9883 h -9.19 c -1.2,0 -1.6,-0.3985 -1.6,-1.1992 V 68.1484 c 0,-1.9961 0.4,-2.7968 1.2,-2.7968 3.2,0 21.18,1.1992 26.78,1.1992 11.59,0 27.57,-1.1992 30.37,-1.1992 2,0 2,0.8007 2,2.3984 v 9.5898 c 0,1.6016 0,2.3985 -2,2.3985 h -8.39 c -4,0 -8.39,4.3984 -9.59,13.5859 -0.8,3.6016 -2.4,43.5628 -2.4,67.5388 v 54.75 h 0.8 c 6.39,-7.191 38.76,-50.351 48.35,-61.543 4.4,-5.195 21.59,-25.578 39.97,-47.554 16.38,-19.5824 29.97,-35.9691 32.77,-38.766 1.6,-1.1992 5.59,-3.9961 9.19,-3.9961 4.8,0 5.99,3.9961 5.99,7.5938 v 93.5113"
         style="fill:#ffffff;fill-opacity:1;fill-rule:evenodd;stroke:none"
         id="path28" /><path
         d="m 3269.05,168.859 v -19.984 c 0,-2.395 0,-48.355 0.4,-54.3477 0.8,-9.1914 5.59,-14.789 17.18,-14.789 h 4.61 c 6.8,0 13.19,3.9961 16.39,8.3945 2.8,3.1953 23.18,51.1522 32.77,71.1332 2.8,5.593 26.38,59.945 28.77,66.738 0.8,2.398 3.2,6.797 0.4,7.992 -0.8,0.801 -2,2.801 -1.6,3.996 -0.4,0.801 0.4,2 4,2.801 7.59,1.199 18.78,8.391 22.38,11.59 0.8,1.597 2.4,2.797 4.8,2.797 2.39,0 3.19,-1.602 3.99,-4.399 5.6,-15.984 25.98,-73.133 31.17,-89.117 6,-19.98 23.18,-67.1367 25.98,-71.1367 5.19,-7.1914 11.99,-10.789 18.78,-10.789 h 7.6 c 1.59,0 1.99,-1.1992 1.99,-2.3985 v -8.3906 c 0,-1.1992 -0.4,-3.5976 -2.79,-3.5976 -4.8,0 -25.98,1.1992 -35.17,1.1992 -7.59,0 -31.17,-1.1992 -36.37,-1.1992 -2.8,0 -3.2,2 -3.2,3.5976 v 8.3906 c 0,1.1993 0.4,2.3985 2,2.3985 h 6.4 c 4.79,0 6.39,3.5976 6.39,6.793 -1.6,7.996 -12.39,39.9647 -15.58,49.1567 h -64.35 c -1.59,-4.797 -14.38,-37.9653 -15.98,-42.7622 -2.4,-7.9922 -1.2,-13.1875 7.19,-13.1875 h 9.99 c 2.4,0 2.8,-1.1992 2.8,-2.7969 v -8.793 c 0,-1.5976 -0.4,-2.7968 -2.4,-2.7968 -3.19,0 -24.37,1.1992 -30.77,1.1992 -4.97,0 -53.95,0 -66.15,0 -13.59,0 -36.77,-1.1992 -39.17,-1.1992 -1.6,0 -2.4,1.1992 -2.4,3.1992 v 8.789 c 0,1.1993 0.8,2.3985 2.4,2.3985 h 8.79 c 9.99,0 16.39,0.4023 17.19,7.5937 0.4,3.5977 0.8,54.352 0.8,67.938 v 17.585 c 0,6.391 -0.8,46.356 -0.8,51.95 0,4.398 -3.6,8.394 -20.38,8.394 h -7.2 c -1.99,0 -2.39,1.199 -2.39,2.797 v 9.192 c 0,1.597 0.79,2.398 2.39,2.398 2.4,0 27.18,-1.598 45.96,-1.199 11.59,0 31.97,1.199 35.17,1.199 1.6,0 2.4,-0.801 2.4,-2 v -9.59 c 0,-1.598 -0.4,-2.797 -2.4,-2.797 h -6.79 c -10.79,0 -14.39,-1.597 -14.79,-9.992 0,-3.996 -0.4,-51.551 -0.4,-54.348 z m 82.94,-20.382 h 54.35 c -1.6,5.593 -20.38,65.539 -21.18,68.738 -0.8,2.394 -1.2,3.996 -2.4,3.996 -1.2,0 -2,-1.199 -3.2,-4.398 -1.19,-3.196 -25.57,-64.34 -27.57,-68.336"
         style="fill:#ffffff;fill-opacity:1;fill-rule:nonzero;stroke:none"
         id="path30" /><path
         d="m 511.852,38.0391 c 32,0 54.437,8.457 69.152,22.0703 20.598,17.6523 28.687,40.8286 30.894,70.9886 1.106,14.347 1.84,78.715 1.84,83.867 0,5.148 0,57.379 0.739,61.055 1.101,4.414 2.207,14.714 15.816,14.714 h 15.078 c 1.84,0 2.207,1.473 2.207,3.68 v 8.09 c 0,1.105 -0.367,2.574 -3.676,2.574 -3.312,0 -15.082,-1.101 -40.461,-1.101 -24.644,0 -41.566,1.101 -45.246,1.101 -2.203,0 -2.57,-0.734 -2.57,-2.574 v -8.828 c 0,-1.84 0.367,-2.942 2.57,-2.942 h 16.188 c 9.562,0 15.445,-6.621 16.551,-16.183 1.105,-9.196 1.839,-30.531 1.839,-58.485 v -78.714 c 0,-27.219 -4.781,-49.2895 -19.128,-64.7387 -12.872,-13.2422 -34.207,-20.2305 -55.172,-20.2305 -21.336,0 -44.875,6.6211 -58.485,26.4844 -8.461,12.5039 -11.402,29.7928 -11.769,46.7148 -0.367,11.77 -1.84,58.481 -1.84,77.977 v 24.277 c 0,18.758 0.367,44.508 0.734,47.816 0.739,8.094 6.989,15.082 17.657,15.082 h 18.39 c 2.574,0 2.945,0.735 2.945,2.575 v 9.562 c 0,1.473 -0.371,2.207 -3.312,2.207 -4.047,0 -21.699,-1.101 -50.391,-1.101 -28.691,0 -46.714,1.101 -50.39,1.101 -2.946,0 -3.313,-0.734 -3.313,-2.941 v -8.094 c 0,-2.574 0.367,-3.309 2.574,-3.309 h 17.29 c 11.402,0 13.976,-5.886 13.976,-18.757 v -87.543 c 0,-48.188 1.473,-72.832 5.887,-89.3832 5.883,-23.1719 18.758,-39.3555 43.769,-49.2891 12.137,-5.1484 30.532,-7.7226 49.657,-7.7226"
         style="fill:#ffffff;fill-opacity:1;fill-rule:evenodd;stroke:none"
         id="path32" /><path
         d="m 813.852,164.859 c 0,16.387 -0.797,41.563 1.199,59.946 0.801,5.593 2.797,8.394 12.789,8.394 h 3.996 c 1.598,0 2.398,1.199 2.398,2.797 v 8.391 c 0,2.398 -0.8,3.199 -2.796,3.199 -2.797,0 -16.786,-1.199 -25.176,-1.199 -12.789,0 -29.977,1.199 -32.774,1.199 -1.996,0 -2.797,-0.801 -2.797,-2 v -9.59 c 0,-2 0.801,-2.797 2.797,-2.797 h 6.793 c 6.797,0 12.789,-2.398 14.789,-7.195 1.996,-4.793 3.196,-27.973 3.196,-37.566 0.8,-12.786 1.199,-25.176 1.199,-47.954 v -26.375 h -1.598 c -4.797,5.192 -41.961,51.95 -49.152,60.344 -8.395,9.988 -54.352,67.938 -55.551,69.535 -1.598,2.399 -3.996,3.2 -9.594,3.2 -4.793,0 -13.187,-0.801 -19.582,-0.801 -4.394,0 -10.789,0.398 -15.984,0.801 -5.195,0 -9.59,0.398 -10.391,0.398 -1.597,0 -2.398,-1.199 -2.398,-2.398 v -9.59 c 0,-1.602 0.801,-2.399 2.398,-2.399 h 3.598 c 11.191,0 21.18,-6.797 21.18,-21.179 v -41.965 c 0,-45.157 -0.797,-73.5316 -1.2,-78.3284 -1.199,-9.1914 -7.589,-11.9883 -11.589,-11.9883 h -9.192 c -1.195,0 -1.597,-0.3985 -1.597,-1.1992 V 68.1484 c 0,-1.9961 0.402,-2.7968 1.199,-2.7968 3.199,0 21.179,1.1992 26.777,1.1992 11.59,0 27.574,-1.1992 30.371,-1.1992 1.996,0 1.996,0.8007 1.996,2.3984 v 9.5898 c 0,1.6016 0,2.3985 -1.996,2.3985 h -8.39 c -4,0 -8.395,4.3984 -9.594,13.5859 -0.797,3.5977 -2.399,43.5628 -2.399,67.5388 v 54.75 h 0.801 c 6.395,-7.191 38.766,-50.351 48.356,-61.543 4.394,-5.195 21.578,-25.578 39.964,-47.554 16.383,-19.5824 29.969,-35.9691 32.77,-38.766 1.598,-1.1992 5.594,-3.9961 9.191,-3.9961 4.793,0 5.993,3.9961 5.993,7.5938 v 93.5113"
         style="fill:#ffffff;fill-opacity:1;fill-rule:evenodd;stroke:none"
         id="path34" /><path
         d="m 908.75,168.855 c 0,2.797 0.398,50.356 0.398,54.352 0.399,8.391 3.997,9.992 14.786,9.992 h 6.793 c 2,0 2.398,1.199 2.398,2.797 v 9.59 c 0,1.199 -0.801,2 -2.398,2 -3.196,0 -23.579,-1.199 -35.168,-1.199 -18.782,-0.399 -43.559,1.199 -45.957,1.199 -1.598,0 -2.399,-0.801 -2.399,-2.398 v -9.192 c 0,-1.598 0.402,-2.797 2.399,-2.797 h 7.195 c 16.781,0 20.379,-4 20.379,-8.394 0,-5.594 0.801,-45.559 0.801,-51.953 V 155.27 c 0,-13.586 -0.403,-64.3403 -0.801,-67.938 -0.797,-7.1953 -7.192,-7.5937 -17.184,-7.5937 h -8.793 c -1.597,0 -2.394,-1.1992 -2.394,-2.3985 v -8.7929 c 0,-1.9961 0.797,-3.1953 2.394,-3.1953 2.399,0 25.578,1.1992 39.164,1.1992 17.985,0 38.766,-1.1992 41.961,-1.1992 2,0 2.399,1.1992 2.399,2.7968 v 9.5938 c 0,1.1992 -0.399,1.9961 -2.399,1.9961 h -5.992 c -11.59,0 -16.387,5.5976 -17.184,14.7851 -0.398,5.9966 -0.398,51.9536 -0.398,54.3516 v 19.98"
         style="fill:#ffffff;fill-opacity:1;fill-rule:evenodd;stroke:none"
         id="path36" /><path
         d="m 1344.27,226.004 c 0,7.195 5.99,8.793 11.99,8.793 15.98,0 27.17,-3.598 37.96,-10.391 7.2,-4.797 13.19,-15.586 13.19,-27.574 0,-10.391 -6.79,-41.562 -51.15,-41.562 -5.2,0 -9.19,0.398 -11.99,0.796 z m -30.37,-68.336 c -0.4,-24.379 0,-47.957 -0.4,-67.5391 0,-8.793 -4.8,-10.3906 -14.39,-10.3906 h -4.79 c -1.6,0 -2.4,-0.7969 -2.4,-1.9961 v -9.1953 c 0,-1.9961 0.8,-3.1953 2.4,-3.1953 2.79,0 23.17,1.1992 33.17,1.1992 13.18,0 34.76,-1.1992 37.56,-1.1992 2.4,0 3.2,0.8007 3.2,2.7968 v 9.5938 c 0,1.1992 -0.8,1.9961 -2.4,1.9961 h -10.39 c -7.99,0 -10.39,4.3984 -11.19,9.9922 v 43.1605 9.589 c 2.8,0.801 6.39,0.801 10.39,0.801 16.78,0 22.78,-8.793 37.17,-33.57 3.59,-5.996 21.18,-38.3633 28.77,-43.9571 6.79,0.3984 16.39,0.7969 25.58,0.7969 3.99,0 8.79,-0.3985 12.39,-0.3985 3.99,-0.3984 7.19,-0.8007 7.99,-0.8007 1.6,0 2.4,1.1992 2.4,2.7968 v 7.9922 c 0,2.3985 -0.4,3.5977 -2,3.5977 -7.2,0 -12.39,0.3984 -17.99,4.3984 -7.59,5.5938 -16.78,17.5823 -22.38,25.5743 -16.38,23.18 -24.37,35.566 -33.56,37.566 v 0.797 c 31.57,11.192 47.15,27.176 47.15,54.75 0,9.196 -5.19,20.781 -13.98,29.176 -10,8.789 -27.98,15.586 -51.96,15.586 -5.19,0 -39.96,-1.199 -44.76,-1.199 -7.19,0 -31.97,1.199 -33.97,1.199 -1.59,0 -2.39,-0.801 -2.39,-2 v -9.59 c 0,-1.598 0.4,-2.797 1.6,-2.797 h 3.99 c 11.19,0 14.79,-4.398 15.19,-12.39 v -38.364 -24.777"
         style="fill:#ffffff;fill-opacity:1;fill-rule:evenodd;stroke:none"
         id="path38" /><path
         d="m 1536.63,61.7539 c 36.37,0 55.55,25.5781 55.55,55.5511 0,19.98 -4.79,29.972 -12.79,38.363 -9.99,10.391 -24.77,14.785 -43.16,21.582 -7.59,2.797 -21.98,8.789 -27.97,16.383 -4.4,5.195 -6.39,13.59 -6.39,19.582 0,7.195 6.39,24.379 28.37,24.379 11.59,0 20.38,-3.996 26.38,-10.789 8.39,-9.594 11.58,-23.578 13.98,-28.375 0.4,-1.2 1.2,-1.996 2.4,-1.598 l 7.19,1.598 c 1.2,0.398 1.6,1.199 1.6,2.398 -0.4,5.594 -3.99,31.57 -3.99,44.758 0,2 -0.4,3.598 -3.6,3.598 -3.2,0 -4.4,0 -5.2,-1.2 l -1.59,-2.796 c -0.8,-2 -2.8,-1.598 -6.8,0.8 -4.79,2.395 -13.19,5.192 -28.37,5.192 -14.39,0 -27.18,-3.594 -37.57,-11.989 -8.79,-7.593 -17.18,-19.98 -17.18,-33.57 0,-19.582 4.79,-32.367 13.98,-41.16 11.99,-10.789 31.18,-17.984 39.17,-20.781 21.18,-7.992 36.77,-17.985 36.77,-40.762 0,-17.1836 -19.19,-27.1758 -31.98,-27.1758 -14.78,0 -27.97,7.9922 -33.96,19.9805 -7.2,13.1873 -7.2,21.5823 -7.2,27.1753 0,1.598 -1.6,2.399 -3.19,2.797 l -7.2,0.801 c -1.6,0 -2.4,-1.199 -2.8,-2.797 -0.4,-6.394 -3.19,-38.3631 -4.39,-49.5545 -0.4,-2 0.8,-3.5976 3.2,-4.3984 3.19,-0.7969 5.19,0 5.99,2 l 1.2,3.1953 c 0.8,3.1992 3.2,2.8008 5.99,0.8008 9.2,-7.1953 23.18,-13.9883 43.56,-13.9883"
         style="fill:#ffffff;fill-opacity:1;fill-rule:evenodd;stroke:none"
         id="path40" /><path
         d="m 1659.88,168.855 c 0,2.797 0.4,50.356 0.4,54.352 0.4,8.391 4,9.992 14.79,9.992 h 6.79 c 2,0 2.4,1.199 2.4,2.797 v 9.59 c 0,1.199 -0.8,2 -2.4,2 -3.2,0 -23.58,-1.199 -35.17,-1.199 -18.78,-0.399 -43.56,1.199 -45.96,1.199 -1.59,0 -2.39,-0.801 -2.39,-2.398 v -9.192 c 0,-1.598 0.4,-2.797 2.39,-2.797 h 7.2 c 16.78,0 20.38,-4 20.38,-8.394 0,-5.594 0.8,-45.559 0.8,-51.953 V 155.27 c 0,-13.586 -0.4,-64.3403 -0.8,-67.938 -0.8,-7.1953 -7.2,-7.5937 -17.19,-7.5937 h -8.79 c -1.6,0 -2.4,-1.1992 -2.4,-2.3985 v -8.7929 c 0,-1.9961 0.8,-3.1953 2.4,-3.1953 2.4,0 25.58,1.1992 39.17,1.1992 17.98,0 38.76,-1.1992 41.96,-1.1992 2,0 2.4,1.1992 2.4,2.7968 v 9.5938 c 0,1.1992 -0.4,1.9961 -2.4,1.9961 h -6 c -11.59,0 -16.38,5.5976 -17.18,14.7851 -0.4,5.9966 -0.4,51.9536 -0.4,54.3516 v 19.98"
         style="fill:#ffffff;fill-opacity:1;fill-rule:evenodd;stroke:none"
         id="path42" /><path
         d="m 1703.95,248.184 c 0.5,0.355 0.35,0.355 1.56,0.222 6.22,-0.691 28.9,-2.82 72.8,-2.82 h 15.98 c 13.06,0 27.13,0.535 42.36,1.164 7.66,0.219 54.6,-0.363 64.19,-0.363 8.79,0 35.97,1.199 38.76,1.199 1.6,0 2.8,-0.801 2.8,-2.797 v -8.793 c 0,-1.598 -0.4,-2.797 -2.8,-2.797 h -5.99 c -7.19,0 -7.59,-4.398 -5.99,-6.797 2.39,-3.593 35.56,-56.746 41.96,-66.336 5.99,9.989 39.16,58.344 40.76,61.543 3.2,6.395 3.6,11.59 -5.19,11.59 h -6.4 c -2,0 -2.8,1.199 -2.8,2.797 v 8.793 c 0,1.598 0.8,2.797 2.8,2.797 2.4,0 22.38,-1.199 34.37,-1.199 7.19,0 21.18,1.199 23.58,1.199 2,0 2.8,-0.801 2.8,-3.199 v -8.391 c 0,-2 -0.8,-2.797 -2.4,-2.797 h -4 c -6.39,0 -10.79,-1.199 -14.39,-3.199 -5.99,-3.195 -52.35,-68.336 -61.54,-82.324 v -33.567 c 0.4,-9.992 0,-20.7848 0.8,-25.5777 0.8,-8.3946 7.19,-8.793 14.39,-8.793 h 5.19 c 2,0 2.8,-0.7969 2.8,-1.9961 v -9.5938 c 0,-1.5976 -0.8,-2.7968 -3.2,-2.7968 -2.4,0 -24.77,1.1992 -37.96,1.1992 -8.79,0 -31.97,-1.1992 -34.37,-1.1992 -2,0 -2.8,0.8007 -2.8,3.1953 v 8.7929 c 0,1.1993 0.8,2.3985 2.4,2.3985 h 5.99 c 12.79,0 15.19,2.3984 15.59,7.9922 0.4,3.5976 0.4,17.9845 0.4,41.5625 v 14.387 c -3.6,7.195 -52.35,78.726 -58.75,84.722 -3.38,3.383 -9.05,4.477 -12.65,4.731 2.37,-10.832 5.6,-25.024 6.87,-31.906 0.4,-1.598 -0.4,-2.399 -2,-3.196 l -6.79,-2 c -2.4,-0.797 -3.6,-0.398 -4.4,1.602 -4.79,9.988 -11.58,23.176 -19.98,30.769 -9.99,3.598 -39.22,3.996 -46.42,3.996 v -67.136 c 0,-41.961 0,-71.9378 0.4,-75.1331 0.8,-6.3945 2.8,-10.3906 9.2,-10.3906 h 15.18 c 2,0 2.8,-1.1992 2.8,-3.5977 V 67.75 c 0,-1.1992 -0.8,-2.3984 -2.8,-2.3984 -2.8,0 -27.57,1.1992 -40.76,1.1992 -11.19,0 -37.17,-1.1992 -40.36,-1.1992 -2.4,0 -3.2,1.1992 -3.2,3.5976 v 7.9922 c 0,2 0.8,2.7969 2.4,2.7969 h 15.98 c 6,0 8.79,3.1953 9.19,6.3945 1.2,15.1872 1.2,36.3672 1.2,60.3442 v 85.921 c -7.59,0 -30.03,0.403 -44.82,-3.597 -9.99,-7.59 -18.38,-20.379 -23.58,-30.77 -0.8,-1.597 -1.99,-2.797 -3.59,-2 l -7.2,2.797 c -1.99,0.801 -1.99,2.399 -1.59,3.996 2.31,7.262 9.25,31.906 12.5,44 0.17,0.637 0.23,1.012 0.72,1.36"
         style="fill:#ffffff;fill-opacity:1;fill-rule:nonzero;stroke:none"
         id="path44" /><path
         d="m 1022.42,244.789 v -9.191 c 0,-1.602 -1.19,-2.399 -2.79,-2.399 h -9.19 c -5.2,0 -11.194,-0.801 -11.194,-5.996 0,-9.191 6.794,-24.777 17.584,-58.348 3.2,-9.988 17.98,-56.347 20.38,-62.742 h 1.2 c 2.4,8.395 21.98,57.95 23.98,63.942 15.18,44.359 20.38,55.152 20.38,59.144 0,2 -1.6,4 -8.39,4 h -4.4 c -1.6,0 -2.4,0.797 -2.4,2.797 v 9.192 c 0,1.199 0.8,2.398 2.4,2.398 2.4,0 23.18,-1.199 32.37,-1.199 6.65,0 55.26,0 61.09,0 l 89.52,0.398 c 3.99,0 9.19,0.801 10.79,0.801 0.8,0 1.6,-0.801 2.39,-5.598 0.8,-3.593 11.99,-37.965 12.79,-40.761 0.4,-1.598 0.4,-2.399 -0.4,-2.797 l -6.39,-2.797 c -0.8,-0.399 -2.4,-0.399 -3.6,1.597 -0.8,1.2 -19.98,23.579 -26.77,29.973 -4.8,4.395 -11.19,5.996 -15.19,5.996 l -42.36,0.797 v -67.937 c 2.4,0 25.98,1.199 29.17,2 10.39,2.796 14.39,8.39 14.39,20.781 0,1.598 0.4,1.996 2,1.996 l 8.79,-0.398 c 1.6,0 2.8,-0.801 2.4,-2.399 -0.8,-3.598 -0.8,-24.777 -0.8,-28.375 0,-8.789 1.2,-21.18 1.6,-26.375 0,-1.598 -0.8,-2 -2,-2 l -8.39,-0.797 c -1.2,0 -2,0 -2.4,1.598 -2,9.992 -4.4,16.387 -14.79,18.785 -11.99,2.797 -25.97,2.797 -29.97,2.797 v -13.59 c 0,-13.984 0.8,-37.164 0.8,-42.3593 0,-18.7813 11.59,-19.9805 28.77,-19.9805 17.59,0 28.78,0.3984 42.36,11.1875 3.2,2.3984 17.19,20.3833 21.18,26.7773 2,2.797 4,3.195 5.2,2.395 l 6.39,-3.594 c 0.8,-0.399 1.6,-1.602 1.2,-2.797 l -14.38,-42.3633 c -0.8,-1.9961 -2.8,-3.9961 -4.4,-3.9961 -2.8,0 -23.98,1.1992 -107.9,1.1992 -7.19,0 -29.17,-1.1992 -33.97,-1.1992 -2,0 -2.4,1.1992 -2.4,2.7968 v 9.1914 c 0,1.6016 0.8,2.3985 2.8,2.3985 h 3.6 c 18.78,0 19.98,1.5976 19.98,7.1953 v 60.3434 24.778 c 0,21.179 -0.4,47.156 -0.8,51.152 -1.2,8.391 -3.6,9.992 -19.58,9.992 h -3.14 -0.86 -5.54 c -7.59,0 -13.19,-2.398 -16.78,-5.996 -7.6,-7.594 -29.18,-59.945 -33.17,-70.336 -3.6,-8.39 -36.37,-86.7186 -39.57,-91.9139 -1.2,-2 -3.19,-3.1992 -6.39,-3.1992 -3.2,0 -5.2,2.8008 -6.39,5.9961 -8.8,23.5781 -29.976,81.523 -33.175,90.316 l -2.797,8.793 c -6.793,18.383 -18.781,54.75 -21.578,58.746 -3.2,4.395 -6.395,7.594 -11.59,7.594 h -3.996 c -1.602,0 -2,1.199 -2,2.399 v 9.988 c 0,1.199 0.801,2 2.398,2 2,0 23.981,-1.199 34.367,-1.199 9.594,0 33.971,1.199 36.371,1.199 2.4,0 3.19,-0.801 3.19,-2.797"
         style="fill:#ffffff;fill-opacity:1;fill-rule:nonzero;stroke:none"
         id="path46" /><path
         d="M 229.191,83.2266 V 219.383 h 28.594 V 83.2266 h -28.594"
         style="fill:#e4631b;fill-opacity:1;fill-rule:nonzero;stroke:none"
         id="path48" /><path
         d="M 74.8125,83.2266 V 219.383 H 102.496 V 83.2266 H 74.8125"
         style="fill:#e4631b;fill-opacity:1;fill-rule:nonzero;stroke:none"
         id="path50" /><path
         d="M 112.023,83.2266 V 219.383 h 29.52 V 83.2266 h -29.52"
         style="fill:#e4631b;fill-opacity:1;fill-rule:nonzero;stroke:none"
         id="path52" /><path
         d="M 151.086,83.2266 V 219.383 h 29.519 V 83.2266 h -29.519"
         style="fill:#e4631b;fill-opacity:1;fill-rule:nonzero;stroke:none"
         id="path54" /><path
         d="M 219.648,219.383 V 83.2266 H 190.133 V 219.383 h 29.515"
         style="fill:#e4631b;fill-opacity:1;fill-rule:nonzero;stroke:none"
         id="path56" /><path
         d="M 245.496,229.004 H 86.4727 l 81.6253,50.219 z"
         style="fill:#e4631b;fill-opacity:1;fill-rule:nonzero;stroke:none"
         id="path58" /><path
         d="M 68.1602,229.004 H 0.0351563 v 50.738 H 150.629 L 68.1602,229.004"
         style="fill:#e4631b;fill-opacity:1;fill-rule:nonzero;stroke:none"
         id="path60" /><path
         d="m 184.938,279.742 h 146.718 v -50.738 h -68.535 l -78.183,50.738"
         style="fill:#e4631b;fill-opacity:1;fill-rule:nonzero;stroke:none"
         id="path62" /><path
         d="M 310.656,289.359 H 21.0313 c 28.3593,51.161 82.5817,85.735 144.8087,85.735 62.223,0 116.441,-34.574 144.816,-85.735"
         style="fill:#e4631b;fill-opacity:1;fill-rule:nonzero;stroke:none"
         id="path64" /><path
         d="m 0.0351563,195.867 v 7.906 L 1.94531,202.391 0.558594,198.145 Z M 56.4648,83.2266 h -12.832 l 6.418,4.664 z m 8.8243,0 h -8.7696 l -2.4609,7.5742 6.4883,4.7148 h -8.0196 l -2.4765,7.6254 -2.4766,-7.6254 h -8.0195 l 6.5,-4.7148 -2.4766,-7.5742 H 0.0351563 L 0,165.328 l 0.0351563,29.602 6.0859337,4.418 6.48441,-4.711 -2.4766,7.625 6.4844,4.711 H 8.59766 l -2.47657,7.629 -1.13281,-3.477 -1.5625,-4.152 H 0.0351563 v 12.41 H 65.2891 Z M 0,165.328 l 6.5,-4.715 -2.49219,-7.625 6.48829,4.711 6.4844,-4.711 -2.4766,7.625 6.4883,4.715 h -8.0195 l -2.4766,7.625 -2.47657,-7.625 z m 22.3438,-43.293 -2.4922,-7.625 6.4882,4.715 6.4844,-4.715 -2.4765,7.625 6.4843,4.715 h -8.0156 l -2.4766,7.625 -2.4765,-7.625 h -8.0195 l 6.5,-4.715"
         style="fill:#e4631b;fill-opacity:1;fill-rule:evenodd;stroke:none"
         id="path66" /><path
         d="M 65.2891,73.6094 V 37.4648 H 0.0351563 V 73.6094 H 65.2891"
         style="fill:#e4631b;fill-opacity:1;fill-rule:evenodd;stroke:none"
         id="path68" /><path
         d="m 267.313,73.6094 h 64.343 V 37.4648 h -64.343 v 36.1446"
         style="fill:#e4631b;fill-opacity:1;fill-rule:evenodd;stroke:none"
         id="path70" /><path
         d="m 169.801,37.4648 h -7.34 l 3.648,2.6485 z m -49.403,10.6211 -2.492,-7.625 6.489,4.7149 6.484,-4.7149 -2.477,7.625 6.489,4.7149 h -8.02 l -2.476,7.625 -2.481,-7.625 h -8.016 z m 41.715,-5.0586 -1.816,-5.5625 H 74.8125 V 73.6094 H 85.3594 L 83.5195,67.9492 H 75.5039 L 82,63.2383 l -2.4883,-7.625 6.4844,4.7109 6.4883,-4.7109 -2.4766,7.625 6.4844,4.7109 h -8.0156 l -1.8399,5.6602 H 245.492 l -1.84,-5.6602 h -8.015 l 6.484,-4.7109 -2.476,-7.625 6.488,4.7109 6.484,-4.7109 -2.488,7.625 6.5,4.7109 h -8.02 l -1.836,5.6602 h 11.012 V 37.4648 H 171.93 l -1.809,5.5625 6.484,4.711 h -8.015 l -2.481,7.625 -2.476,-7.625 h -8.016 z m 48.457,5.0586 6.5,4.7149 h -8.019 l -2.477,7.625 -2.476,-7.625 h -8.02 l 6.488,-4.7149 -2.48,-7.625 6.488,4.7149 6.485,-4.7149 -2.489,7.625"
         style="fill:#e4631b;fill-opacity:1;fill-rule:evenodd;stroke:none"
         id="path72" /><path
         d="m 331.656,203.457 v -6.242 l -1.648,5.047 z m 0,-120.2304 h -43.105 -12.887 -8.351 V 219.383 h 64.343 v -12.41 h -3.168 l -2.476,7.629 -2.481,-7.629 h -8.015 l 6.488,-4.711 -2.481,-7.625 6.489,4.711 5.644,-4.102 v -29.922 l -7.543,0.004 -2.476,7.625 -2.481,-7.625 h -8.015 l 6.484,-4.715 -2.477,-7.625 6.489,4.711 6.484,-4.711 -2.488,7.625 6.023,4.367 z m -43.105,0 -2.477,7.5742 6.5,4.7148 h -8.015 l -2.481,7.6254 -2.476,-7.6254 h -8.016 l 6.484,-4.7148 -2.461,-7.5742 6.469,4.664 6.418,-4.664 z m 21.234,38.8084 6.5,4.715 h -8.015 l -2.481,7.625 -2.476,-7.625 h -8.016 l 6.484,-4.715 -2.476,-7.625 6.484,4.715 6.488,-4.715 -2.492,7.625"
         style="fill:#e4631b;fill-opacity:1;fill-rule:evenodd;stroke:none"
         id="path74" /></g></g></svg>
